<svg width="15" height="14" viewBox="0 0 15 14" fill="none" xmlns="http://www.w3.org/2000/svg">
<path d="M7.88911 0.691623L9.54732 4.05114C9.641 4.2409 9.82205 4.37243 10.0315 4.40284L13.7388 4.94165C13.9811 4.97683 14.1824 5.14652 14.258 5.37936C14.3336 5.61219 14.2704 5.86775 14.095 6.03855L11.4119 8.65351C11.2602 8.80139 11.1914 9.01421 11.2268 9.22254L11.8601 12.9151C11.9014 13.1563 11.8022 13.4001 11.6042 13.5439C11.4062 13.6877 11.1437 13.7067 10.9271 13.5928L7.6107 11.8491C7.42328 11.7507 7.19952 11.7507 7.0121 11.8491L3.69566 13.5928C3.47905 13.7067 3.21657 13.6877 3.01857 13.5439C2.82057 13.4001 2.72139 13.1563 2.76272 12.9151L3.39604 9.22254C3.43183 9.01394 3.36257 8.80109 3.21087 8.65351L0.527756 6.03855C0.352386 5.86775 0.28922 5.61219 0.364829 5.37936C0.440438 5.14652 0.641701 4.97683 0.883961 4.94165L4.59132 4.40284C4.80075 4.37243 4.9818 4.2409 5.07548 4.05114L6.73369 0.691623C6.97159 0.213897 7.65314 0.213897 7.88911 0.691623Z" fill="#FC7614"/>
</svg>
